<svg width="98" height="109" viewBox="0 0 98 109" fill="none" xmlns="http://www.w3.org/2000/svg">
<path fill-rule="evenodd" clip-rule="evenodd" d="M97.8205 2.11242C72.8103 -0.114158 48.9447 -2.31866 43.1809 16.4157C29.7009 16.2835 20.1673 19.8387 14.0963 26.5915C17.1934 36.5079 14.3196 43.7793 16.376 56.5731C8.26926 62.9737 -2.01901 67.354 0.51929 83.6512C4.65298 90.0784 16.9755 90.656 13.8792 102.248C27.7187 100.807 30.895 103.313 44.2494 108.732C43.0798 96.8074 55.0808 97.1154 54.4453 85.6736C65.4969 87.1792 69.4247 82.0504 80.1099 83.1952C80.0629 72.8399 82.2926 64.5885 92.5605 63.7879C92.0658 46.3228 93.7219 20.2264 97.8205 2.11242Z" fill="#78C6FF" fill-opacity="0.47"/>
</svg>
