<svg width="675" height="700" viewBox="0 0 675 700" fill="none" xmlns="http://www.w3.org/2000/svg">
<g clip-path="url(#clip0)">
<path d="M177.208 597C181.082 597 183.952 598.027 185.818 600.08C187.732 602.133 188.688 605.143 188.688 609.11V615.48C188.688 619.447 187.732 622.457 185.818 624.51C183.952 626.563 181.082 627.59 177.208 627.59H173.568V646H165.868V597H177.208ZM173.568 604V620.59H177.208C178.422 620.59 179.355 620.263 180.008 619.61C180.662 618.957 180.988 617.743 180.988 615.97V608.62C180.988 606.847 180.662 605.633 180.008 604.98C179.355 604.327 178.422 604 177.208 604H173.568ZM216.628 646H208.858L207.528 637.11H198.078L196.748 646H189.678L197.518 597H208.788L216.628 646ZM199.058 630.46H206.478L202.768 605.68L199.058 630.46ZM231.764 618.7H242.544V634.24C242.544 638.207 241.564 641.263 239.604 643.41C237.691 645.51 234.844 646.56 231.064 646.56C227.284 646.56 224.414 645.51 222.454 643.41C220.541 641.263 219.584 638.207 219.584 634.24V608.76C219.584 604.793 220.541 601.76 222.454 599.66C224.414 597.513 227.284 596.44 231.064 596.44C234.844 596.44 237.691 597.513 239.604 599.66C241.564 601.76 242.544 604.793 242.544 608.76V613.52H235.264V608.27C235.264 606.497 234.891 605.26 234.144 604.56C233.444 603.813 232.487 603.44 231.274 603.44C230.061 603.44 229.081 603.813 228.334 604.56C227.634 605.26 227.284 606.497 227.284 608.27V634.73C227.284 636.503 227.634 637.74 228.334 638.44C229.081 639.14 230.061 639.49 231.274 639.49C232.487 639.49 233.444 639.14 234.144 638.44C234.891 637.74 235.264 636.503 235.264 634.73V625.7H231.764V618.7ZM255.189 617.65H265.759V624.65H255.189V639H268.489V646H247.489V597H268.489V604H255.189V617.65ZM290.99 610.51V646H284.06V597H293.72L301.63 626.33V597H308.49V646H300.58L290.99 610.51ZM321.073 634.73C321.073 636.503 321.423 637.763 322.123 638.51C322.87 639.21 323.85 639.56 325.063 639.56C326.276 639.56 327.233 639.21 327.933 638.51C328.68 637.763 329.053 636.503 329.053 634.73V608.27C329.053 606.497 328.68 605.26 327.933 604.56C327.233 603.813 326.276 603.44 325.063 603.44C323.85 603.44 322.87 603.813 322.123 604.56C321.423 605.26 321.073 606.497 321.073 608.27V634.73ZM313.373 608.76C313.373 604.793 314.376 601.76 316.383 599.66C318.39 597.513 321.283 596.44 325.063 596.44C328.843 596.44 331.736 597.513 333.743 599.66C335.75 601.76 336.753 604.793 336.753 608.76V634.24C336.753 638.207 335.75 641.263 333.743 643.41C331.736 645.51 328.843 646.56 325.063 646.56C321.283 646.56 318.39 645.51 316.383 643.41C314.376 641.263 313.373 638.207 313.373 634.24V608.76ZM339.517 597H363.317V604H355.267V646H347.567V604H339.517V597ZM385.277 618.77H395.217V625.77H385.277V646H377.577V597H397.947V604H385.277V618.77ZM408.71 634.73C408.71 636.503 409.06 637.763 409.76 638.51C410.507 639.21 411.487 639.56 412.7 639.56C413.913 639.56 414.87 639.21 415.57 638.51C416.317 637.763 416.69 636.503 416.69 634.73V608.27C416.69 606.497 416.317 605.26 415.57 604.56C414.87 603.813 413.913 603.44 412.7 603.44C411.487 603.44 410.507 603.813 409.76 604.56C409.06 605.26 408.71 606.497 408.71 608.27V634.73ZM401.01 608.76C401.01 604.793 402.013 601.76 404.02 599.66C406.027 597.513 408.92 596.44 412.7 596.44C416.48 596.44 419.373 597.513 421.38 599.66C423.387 601.76 424.39 604.793 424.39 608.76V634.24C424.39 638.207 423.387 641.263 421.38 643.41C419.373 645.51 416.48 646.56 412.7 646.56C408.92 646.56 406.027 645.51 404.02 643.41C402.013 641.263 401.01 638.207 401.01 634.24V608.76ZM436.744 597V634.8C436.744 636.573 437.094 637.81 437.794 638.51C438.54 639.21 439.52 639.56 440.734 639.56C441.947 639.56 442.904 639.21 443.604 638.51C444.35 637.81 444.724 636.573 444.724 634.8V597H452.004V634.31C452.004 638.277 451.024 641.333 449.064 643.48C447.15 645.58 444.304 646.63 440.524 646.63C436.744 646.63 433.874 645.58 431.914 643.48C430 641.333 429.044 638.277 429.044 634.31V597H436.744ZM464.144 610.51V646H457.214V597H466.874L474.784 626.33V597H481.644V646H473.734L464.144 610.51ZM487.157 597H499.337C503.211 597 506.081 598.027 507.947 600.08C509.861 602.133 510.817 605.143 510.817 609.11V633.89C510.817 637.857 509.861 640.867 507.947 642.92C506.081 644.973 503.211 646 499.337 646H487.157V597ZM494.857 604V639H499.197C500.411 639 501.367 638.65 502.067 637.95C502.767 637.25 503.117 636.013 503.117 634.24V608.76C503.117 606.987 502.767 605.75 502.067 605.05C501.367 604.35 500.411 604 499.197 604H494.857Z" fill="#333333"/>
<path d="M234.569 685.2H237.649V689.64C237.649 690.773 237.369 691.647 236.809 692.26C236.262 692.86 235.449 693.16 234.369 693.16C233.289 693.16 232.469 692.86 231.909 692.26C231.362 691.647 231.089 690.773 231.089 689.64V682.36C231.089 681.227 231.362 680.36 231.909 679.76C232.469 679.147 233.289 678.84 234.369 678.84C235.449 678.84 236.262 679.147 236.809 679.76C237.369 680.36 237.649 681.227 237.649 682.36V683.72H235.569V682.22C235.569 681.713 235.462 681.36 235.249 681.16C235.049 680.947 234.775 680.84 234.429 680.84C234.082 680.84 233.802 680.947 233.589 681.16C233.389 681.36 233.289 681.713 233.289 682.22V689.78C233.289 690.287 233.389 690.64 233.589 690.84C233.802 691.04 234.082 691.14 234.429 691.14C234.775 691.14 235.049 691.04 235.249 690.84C235.462 690.64 235.569 690.287 235.569 689.78V687.2H234.569V685.2ZM241.082 689.78C241.082 690.287 241.182 690.647 241.382 690.86C241.595 691.06 241.875 691.16 242.222 691.16C242.568 691.16 242.842 691.06 243.042 690.86C243.255 690.647 243.362 690.287 243.362 689.78V682.22C243.362 681.713 243.255 681.36 243.042 681.16C242.842 680.947 242.568 680.84 242.222 680.84C241.875 680.84 241.595 680.947 241.382 681.16C241.182 681.36 241.082 681.713 241.082 682.22V689.78ZM238.882 682.36C238.882 681.227 239.168 680.36 239.742 679.76C240.315 679.147 241.142 678.84 242.222 678.84C243.302 678.84 244.128 679.147 244.702 679.76C245.275 680.36 245.562 681.227 245.562 682.36V689.64C245.562 690.773 245.275 691.647 244.702 692.26C244.128 692.86 243.302 693.16 242.222 693.16C241.142 693.16 240.315 692.86 239.742 692.26C239.168 691.647 238.882 690.773 238.882 689.64V682.36ZM253.417 679C254.564 679 255.39 679.267 255.897 679.8C256.417 680.333 256.677 681.14 256.677 682.22V682.72C256.677 683.44 256.564 684.033 256.337 684.5C256.11 684.967 255.75 685.313 255.257 685.54C255.857 685.767 256.277 686.14 256.517 686.66C256.77 687.167 256.897 687.793 256.897 688.54V689.68C256.897 690.76 256.617 691.587 256.057 692.16C255.497 692.72 254.664 693 253.557 693H250.097V679H253.417ZM252.297 686.7V691H253.557C253.93 691 254.21 690.9 254.397 690.7C254.597 690.5 254.697 690.14 254.697 689.62V688.4C254.697 687.747 254.584 687.3 254.357 687.06C254.144 686.82 253.784 686.7 253.277 686.7H252.297ZM252.297 681V684.7H253.157C253.57 684.7 253.89 684.593 254.117 684.38C254.357 684.167 254.477 683.78 254.477 683.22V682.44C254.477 681.933 254.384 681.567 254.197 681.34C254.024 681.113 253.744 681 253.357 681H252.297ZM265.342 693H263.122L262.742 690.46H260.042L259.662 693H257.642L259.882 679H263.102L265.342 693ZM260.322 688.56H262.442L261.382 681.48L260.322 688.56ZM272.727 687.78V689.64C272.727 690.773 272.447 691.647 271.887 692.26C271.34 692.86 270.527 693.16 269.447 693.16C268.367 693.16 267.547 692.86 266.987 692.26C266.44 691.647 266.167 690.773 266.167 689.64V682.36C266.167 681.227 266.44 680.36 266.987 679.76C267.547 679.147 268.367 678.84 269.447 678.84C270.527 678.84 271.34 679.147 271.887 679.76C272.447 680.36 272.727 681.227 272.727 682.36V683.72H270.647V682.22C270.647 681.713 270.54 681.36 270.327 681.16C270.127 680.947 269.854 680.84 269.507 680.84C269.16 680.84 268.88 680.947 268.667 681.16C268.467 681.36 268.367 681.713 268.367 682.22V689.78C268.367 690.287 268.467 690.64 268.667 690.84C268.88 691.04 269.16 691.14 269.507 691.14C269.854 691.14 270.127 691.04 270.327 690.84C270.54 690.64 270.647 690.287 270.647 689.78V687.78H272.727ZM276.942 687.42L276.262 688.7V693H274.062V679H276.262V685.1L279.142 679H281.342L278.282 685.24L281.342 693H279.082L276.942 687.42ZM292.568 693H290.348L289.968 690.46H287.268L286.888 693H284.868L287.108 679H290.328L292.568 693ZM287.548 688.56H289.668L288.608 681.48L287.548 688.56ZM295.553 682.86V693H293.573V679H296.333L298.593 687.38V679H300.553V693H298.293L295.553 682.86ZM302.128 679H305.608C306.715 679 307.535 679.293 308.068 679.88C308.615 680.467 308.888 681.327 308.888 682.46V689.54C308.888 690.673 308.615 691.533 308.068 692.12C307.535 692.707 306.715 693 305.608 693H302.128V679ZM304.328 681V691H305.568C305.915 691 306.188 690.9 306.388 690.7C306.588 690.5 306.688 690.147 306.688 689.64V682.36C306.688 681.853 306.588 681.5 306.388 681.3C306.188 681.1 305.915 681 305.568 681H304.328ZM312.758 679H319.558V681H317.258V693H315.058V681H312.758V679ZM325.127 693C325.1 692.907 325.073 692.82 325.047 692.74C325.02 692.66 324.993 692.56 324.967 692.44C324.953 692.32 324.94 692.167 324.927 691.98C324.927 691.793 324.927 691.56 324.927 691.28V689.08C324.927 688.427 324.813 687.967 324.587 687.7C324.36 687.433 323.993 687.3 323.487 687.3H322.727V693H320.527V679H323.847C324.993 679 325.82 679.267 326.327 679.8C326.847 680.333 327.107 681.14 327.107 682.22V683.32C327.107 684.76 326.627 685.707 325.667 686.16C326.227 686.387 326.607 686.76 326.807 687.28C327.02 687.787 327.127 688.407 327.127 689.14V691.3C327.127 691.647 327.14 691.953 327.167 692.22C327.193 692.473 327.26 692.733 327.367 693H325.127ZM322.727 681V685.3H323.587C324 685.3 324.32 685.193 324.547 684.98C324.787 684.767 324.907 684.38 324.907 683.82V682.44C324.907 681.933 324.813 681.567 324.627 681.34C324.453 681.113 324.173 681 323.787 681H322.727ZM330.438 688.36L327.658 679H329.958L331.638 685.38L333.318 679H335.418L332.638 688.36V693H330.438V688.36ZM346.533 693H344.313L343.933 690.46H341.233L340.853 693H338.833L341.073 679H344.293L346.533 693ZM341.513 688.56H343.633L342.573 681.48L341.513 688.56ZM350.663 679H354.143C355.25 679 356.07 679.293 356.603 679.88C357.15 680.467 357.423 681.327 357.423 682.46V689.54C357.423 690.673 357.15 691.533 356.603 692.12C356.07 692.707 355.25 693 354.143 693H350.663V679ZM352.863 681V691H354.103C354.45 691 354.723 690.9 354.923 690.7C355.123 690.5 355.223 690.147 355.223 689.64V682.36C355.223 681.853 355.123 681.5 354.923 681.3C354.723 681.1 354.45 681 354.103 681H352.863ZM358.827 679H361.027V693H358.827V679ZM364.836 685.22H367.676V687.22H364.836V693H362.636V679H368.456V681H364.836V685.22ZM371.711 685.22H374.551V687.22H371.711V693H369.511V679H375.331V681H371.711V685.22ZM378.586 684.9H381.606V686.9H378.586V691H382.386V693H376.386V679H382.386V681H378.586V684.9ZM388.349 693C388.323 692.907 388.296 692.82 388.269 692.74C388.243 692.66 388.216 692.56 388.189 692.44C388.176 692.32 388.163 692.167 388.149 691.98C388.149 691.793 388.149 691.56 388.149 691.28V689.08C388.149 688.427 388.036 687.967 387.809 687.7C387.583 687.433 387.216 687.3 386.709 687.3H385.949V693H383.749V679H387.069C388.216 679 389.043 679.267 389.549 679.8C390.069 680.333 390.329 681.14 390.329 682.22V683.32C390.329 684.76 389.849 685.707 388.889 686.16C389.449 686.387 389.829 686.76 390.029 687.28C390.243 687.787 390.349 688.407 390.349 689.14V691.3C390.349 691.647 390.363 691.953 390.389 692.22C390.416 692.473 390.483 692.733 390.589 693H388.349ZM385.949 681V685.3H386.809C387.223 685.3 387.543 685.193 387.769 684.98C388.009 684.767 388.129 684.38 388.129 683.82V682.44C388.129 681.933 388.036 681.567 387.849 681.34C387.676 681.113 387.396 681 387.009 681H385.949ZM393.996 684.9H397.016V686.9H393.996V691H397.796V693H391.796V679H397.796V681H393.996V684.9ZM401.119 682.86V693H399.139V679H401.899L404.159 687.38V679H406.119V693H403.859L401.119 682.86ZM407.055 679H413.855V681H411.555V693H409.355V681H407.055V679ZM417.929 679H420.129V691H423.749V693H417.929V679ZM424.706 679H426.906V693H424.706V679ZM430.475 682.86V693H428.495V679H431.255L433.515 687.38V679H435.475V693H433.215L430.475 682.86ZM439.93 687.42L439.25 688.7V693H437.05V679H439.25V685.1L442.13 679H444.33L441.27 685.24L444.33 693H442.07L439.93 687.42Z" fill="#59C3FB"/>
<path d="M0 376.692L95.6375 246.881H149.744V376.692H167.916V407.752H149.744V451.905H95.618V407.752H0V376.692ZM95.618 376.692V312.664L50.9287 376.692H95.618Z" fill="#75D1F9"/>
<path d="M506.012 376.692L601.63 246.881H655.737V376.692H675.001V407.752H655.737V451.905H601.63V407.752H506.012V376.692ZM601.63 376.692V312.664L556.94 376.692H601.63Z" fill="#75D1F9"/>
<path d="M339.721 555.418C443.979 554.012 527.353 468.261 525.943 363.889C524.533 259.516 438.873 176.046 334.615 177.453C230.357 178.86 146.983 264.61 148.393 368.983C149.803 473.355 235.464 556.825 339.721 555.418Z" fill="#75D1F9"/>
<path d="M425.015 414.283C458.571 389.135 491.737 397.908 509.793 406.29C511.645 393.092 526.229 233.26 338.795 233.26C338.756 233.26 338.737 233.26 338.698 233.26C338.659 233.26 338.639 233.26 338.6 233.26C153.35 233.26 165.731 393.092 167.584 406.29C185.639 397.908 218.805 389.135 252.361 414.283C286.112 439.586 285.176 477.307 281.081 498.965C299.663 502.299 319.18 503.819 338.6 503.917C338.639 503.917 338.659 503.917 338.698 503.917C338.737 503.917 338.756 503.917 338.795 503.917C358.196 503.819 377.733 502.299 396.314 498.965C392.22 477.307 391.264 439.567 425.015 414.283ZM338.951 398.648C335.091 398.648 328.715 392.976 327.994 387.771C327.038 381.63 335.091 381.143 339.595 380.909C358.742 380.87 345.269 398.648 338.951 398.648Z" fill="white"/>
<path d="M339.575 380.909C335.071 381.143 327.038 381.61 327.974 387.771C328.675 392.975 335.071 398.648 338.931 398.648C345.268 398.648 358.741 380.87 339.575 380.909Z" fill="#333333"/>
<path d="M252.361 414.283C218.805 389.135 185.639 397.908 167.584 406.29C175.305 461.244 223.66 488.692 281.082 498.965C285.176 477.307 286.112 439.567 252.361 414.283Z" fill="white"/>
<path d="M509.792 406.29C491.737 397.908 458.571 389.135 425.015 414.283C391.264 439.586 392.2 477.307 396.295 498.965C453.716 488.672 502.091 461.225 509.792 406.29Z" fill="white"/>
<path d="M213.153 249.83C201.454 255.015 200.869 271.176 211.457 277.921L234.269 260.669C229.746 248.173 218.983 247.335 213.153 249.83Z" fill="#FFC1C2"/>
<path d="M199.814 221.856C166.375 236.671 164.699 282.872 194.979 302.133L260.18 252.812C247.253 217.138 216.485 214.76 199.814 221.856ZM211.455 277.901C200.867 271.156 201.452 254.996 213.151 249.81C218.981 247.334 229.744 248.153 234.267 260.629L211.455 277.901Z" fill="#333333"/>
<path d="M464.382 249.83C458.552 247.354 447.789 248.173 443.266 260.649L466.078 277.902C476.666 271.176 476.081 255.015 464.382 249.83Z" fill="#FFC1C2"/>
<path d="M477.719 221.856C461.049 214.76 430.281 217.138 417.373 252.793L482.555 302.113C512.835 282.872 511.139 236.691 477.719 221.856ZM466.079 277.901L443.266 260.649C447.79 248.173 458.553 247.335 464.383 249.83C476.081 255.015 476.666 271.176 466.079 277.901Z" fill="#333333"/>
<path d="M309.57 463.252C312.593 473.915 324.486 481.888 338.7 481.888C348.293 481.888 356.814 478.262 362.273 472.648C348.215 461.049 324.603 456.643 309.57 463.252Z" fill="#FF7979"/>
<path d="M509.792 406.29C491.737 397.908 458.571 389.135 425.015 414.283C391.264 439.586 392.2 477.307 396.295 498.965C453.716 488.672 502.091 461.225 509.792 406.29Z" fill="#FFDBDB"/>
<path d="M368.57 457.93C368.57 444.693 355.194 433.972 338.699 433.972C322.204 433.972 308.828 444.693 308.828 457.93C308.828 459.762 309.101 461.536 309.569 463.252C324.621 456.643 348.233 461.049 362.272 472.648C366.211 468.593 368.57 463.486 368.57 457.93Z" fill="#333333"/>
<path d="M252.361 414.283C218.805 389.135 185.639 397.908 167.584 406.29C175.305 461.244 223.66 488.692 281.082 498.965C285.176 477.307 286.112 439.567 252.361 414.283Z" fill="#FFDBDB"/>
<path d="M313.312 333.811C324.815 349.913 312.941 378.101 286.794 396.757C260.648 415.413 230.133 417.499 218.629 401.397C207.145 385.295 219 357.106 245.166 338.45C271.313 319.794 301.827 317.709 313.312 333.811Z" fill="#333333"/>
<path d="M364.066 333.811C352.562 349.913 364.436 378.101 390.583 396.757C416.73 415.413 447.244 417.499 458.748 401.397C470.252 385.295 458.377 357.106 432.231 338.45C406.064 319.794 375.55 317.709 364.066 333.811Z" fill="#333333"/>
<path d="M396.022 355.391C389.841 355.391 384.83 360.401 384.83 366.6C384.83 372.78 389.841 377.809 396.022 377.809C402.203 377.809 407.233 372.799 407.233 366.6C407.233 360.42 402.203 355.391 396.022 355.391ZM396.022 369.563C394.384 369.563 393.058 368.237 393.058 366.6C393.058 364.962 394.384 363.637 396.022 363.637C397.66 363.637 398.986 364.962 398.986 366.6C398.986 368.237 397.66 369.563 396.022 369.563Z" fill="white"/>
<path d="M281.356 355.391C275.175 355.391 270.145 360.401 270.145 366.6C270.145 372.78 275.156 377.809 281.356 377.809C287.537 377.809 292.548 372.799 292.548 366.6C292.567 360.42 287.556 355.391 281.356 355.391ZM281.356 369.563C279.718 369.563 278.392 368.237 278.392 366.6C278.392 364.962 279.718 363.637 281.356 363.637C282.994 363.637 284.32 364.962 284.32 366.6C284.32 368.237 282.994 369.563 281.356 369.563Z" fill="white"/>
<path d="M472.416 228.191C485.421 231.759 495.19 244.586 495.17 257.589C495.17 264.762 488.424 268.33 479.845 248.777C473.43 234.157 456.506 234.41 458.612 230.414C460.289 227.197 467.6 226.866 472.416 228.191Z" fill="#4D4D4D"/>
<path d="M205.117 228.191C192.112 231.759 182.344 244.586 182.344 257.589C182.344 264.762 189.09 268.33 197.669 248.777C204.084 234.157 221.008 234.41 218.902 230.414C217.226 227.197 209.914 226.866 205.117 228.191Z" fill="#4D4D4D"/>
<path d="M338.074 218.639C347.433 139.98 438.352 156.433 507.726 155.01C563.802 153.86 593.751 147.895 589.852 87.5217C588.487 66.234 607.634 -8.87695 494.526 1.14305C381.418 11.163 262.169 -1.91753 190.143 0.246319C118.118 2.41017 92.0686 17.4402 90.7038 82.5312C89.3389 147.622 99.2049 159.65 204.63 153.88C341.838 146.374 338.074 218.639 338.074 218.639Z" fill="#333333"/>
<path d="M228.526 69.1C228.526 74.2333 228.06 79.1333 227.126 83.8C226.26 88.4 224.593 92.4667 222.126 96C219.66 99.4667 216.293 102.267 212.026 104.4C207.76 106.467 202.226 107.5 195.426 107.5C188.626 107.5 183.093 106.467 178.826 104.4C174.56 102.267 171.193 99.4333 168.726 95.9C166.326 92.3667 164.66 88.3 163.726 83.7C162.86 79.0333 162.426 74.1667 162.426 69.1C162.426 64.5 162.86 60 163.726 55.6C164.66 51.2 166.326 47.2667 168.726 43.8C171.193 40.3333 174.56 37.5667 178.826 35.5C183.16 33.3667 188.693 32.3 195.426 32.3C202.16 32.3 207.66 33.3667 211.926 35.5C216.26 37.5667 219.626 40.3333 222.026 43.8C224.493 47.2667 226.193 51.2 227.126 55.6C228.06 60 228.526 64.5 228.526 69.1ZM210.126 69.1C210.126 65.1667 209.86 61.8333 209.326 59.1C208.86 56.3 208.026 54.0333 206.826 52.3C205.693 50.5667 204.193 49.3 202.326 48.5C200.46 47.7 198.16 47.3 195.426 47.3C192.693 47.3 190.393 47.7 188.526 48.5C186.66 49.2333 185.16 50.4667 184.026 52.2C182.893 53.9333 182.093 56.2 181.626 59C181.16 61.7333 180.926 65.1 180.926 69.1C180.926 73.5667 181.16 77.3 181.626 80.3C182.16 83.3 182.993 85.7333 184.126 87.6C185.26 89.4 186.726 90.7 188.526 91.5C190.393 92.2333 192.693 92.6 195.426 92.6C198.16 92.6 200.46 92.2 202.326 91.4C204.193 90.6 205.693 89.3 206.826 87.5C208.026 85.6333 208.86 83.2 209.326 80.2C209.86 77.2 210.126 73.5 210.126 69.1ZM291.764 79C291.764 83.2 291.23 87.0333 290.164 90.5C289.164 93.9667 287.53 96.9667 285.264 99.5C283.064 102.033 280.164 104 276.564 105.4C272.964 106.8 268.564 107.5 263.364 107.5C258.164 107.5 253.764 106.8 250.164 105.4C246.63 104 243.73 102.067 241.464 99.6C239.197 97.0667 237.564 94.0667 236.564 90.6C235.564 87.1333 235.064 83.3 235.064 79.1C235.064 74.9 235.564 71.0667 236.564 67.6C237.564 64.1333 239.197 61.1667 241.464 58.7C243.73 56.1667 246.63 54.2 250.164 52.8C253.764 51.4 258.164 50.7 263.364 50.7C268.564 50.7 272.964 51.4 276.564 52.8C280.164 54.1333 283.064 56.0667 285.264 58.6C287.53 61.0667 289.164 64.0333 290.164 67.5C291.23 70.9667 291.764 74.8 291.764 79ZM273.464 79C273.464 75.9333 273.264 73.4333 272.864 71.5C272.464 69.5667 271.83 68.0333 270.964 66.9C270.097 65.7667 269.03 65 267.764 64.6C266.497 64.1333 265.03 63.9 263.364 63.9C261.63 63.9 260.13 64.1333 258.864 64.6C257.664 65 256.63 65.7667 255.764 66.9C254.897 68.0333 254.264 69.6 253.864 71.6C253.464 73.5333 253.264 76.0333 253.264 79.1C253.264 82.1667 253.464 84.7 253.864 86.7C254.264 88.6333 254.897 90.2 255.764 91.4C256.63 92.5333 257.664 93.3333 258.864 93.8C260.13 94.2 261.63 94.4 263.364 94.4C265.03 94.4 266.497 94.1667 267.764 93.7C269.03 93.2333 270.097 92.4333 270.964 91.3C271.83 90.1 272.464 88.5333 272.864 86.6C273.264 84.6 273.464 82.0667 273.464 79ZM354.068 79C354.068 83.2 353.535 87.0333 352.468 90.5C351.468 93.9667 349.835 96.9667 347.568 99.5C345.368 102.033 342.468 104 338.868 105.4C335.268 106.8 330.868 107.5 325.668 107.5C320.468 107.5 316.068 106.8 312.468 105.4C308.935 104 306.035 102.067 303.768 99.6C301.502 97.0667 299.868 94.0667 298.868 90.6C297.868 87.1333 297.368 83.3 297.368 79.1C297.368 74.9 297.868 71.0667 298.868 67.6C299.868 64.1333 301.502 61.1667 303.768 58.7C306.035 56.1667 308.935 54.2 312.468 52.8C316.068 51.4 320.468 50.7 325.668 50.7C330.868 50.7 335.268 51.4 338.868 52.8C342.468 54.1333 345.368 56.0667 347.568 58.6C349.835 61.0667 351.468 64.0333 352.468 67.5C353.535 70.9667 354.068 74.8 354.068 79ZM335.768 79C335.768 75.9333 335.568 73.4333 335.168 71.5C334.768 69.5667 334.135 68.0333 333.268 66.9C332.402 65.7667 331.335 65 330.068 64.6C328.802 64.1333 327.335 63.9 325.668 63.9C323.935 63.9 322.435 64.1333 321.168 64.6C319.968 65 318.935 65.7667 318.068 66.9C317.202 68.0333 316.568 69.6 316.168 71.6C315.768 73.5333 315.568 76.0333 315.568 79.1C315.568 82.1667 315.768 84.7 316.168 86.7C316.568 88.6333 317.202 90.2 318.068 91.4C318.935 92.5333 319.968 93.3333 321.168 93.8C322.435 94.2 323.935 94.4 325.668 94.4C327.335 94.4 328.802 94.1667 330.068 93.7C331.335 93.2333 332.402 92.4333 333.268 91.3C334.135 90.1 334.768 88.5333 335.168 86.6C335.568 84.6 335.768 82.0667 335.768 79ZM416.673 78.8C416.673 83.2 416.106 87.1667 414.973 90.7C413.84 94.2333 412.14 97.2667 409.873 99.8C407.606 102.267 404.706 104.167 401.173 105.5C397.706 106.833 393.64 107.5 388.973 107.5C387.573 107.5 386.006 107.333 384.273 107C382.606 106.733 380.94 106.2 379.273 105.4C379.673 106.333 379.94 107 380.073 107.4C380.273 107.8 380.373 108.267 380.373 108.8V130.3H362.273V52.3H375.773L377.273 56.1C379.34 54.2333 381.573 52.8667 383.973 52C386.373 51.1333 388.84 50.7 391.373 50.7C395.04 50.7 398.406 51.2667 401.473 52.4C404.606 53.5333 407.306 55.2667 409.573 57.6C411.84 59.9333 413.573 62.8667 414.773 66.4C416.04 69.8667 416.673 74 416.673 78.8ZM398.573 78.8C398.573 73.4667 397.773 69.4667 396.173 66.8C394.64 64.1333 392.04 62.8 388.373 62.8C387.24 62.8 386.006 63.0333 384.673 63.5C383.406 63.9 381.973 64.5667 380.373 65.5V93.8C381.906 94.5333 383.273 95 384.473 95.2C385.673 95.3333 386.873 95.4 388.073 95.4C391.806 95.4 394.473 94.0667 396.073 91.4C397.74 88.7333 398.573 84.5333 398.573 78.8ZM471.871 88.7C471.871 91.9 471.237 94.6667 469.971 97C468.771 99.3333 467.071 101.3 464.871 102.9C462.671 104.433 460.037 105.567 456.971 106.3C453.904 107.1 450.537 107.5 446.871 107.5C440.071 107.5 434.671 106.3 430.671 103.9C426.671 101.5 423.737 98.4 421.871 94.6L434.571 89.8C435.971 91.9333 437.637 93.4333 439.571 94.3C441.571 95.1667 444.004 95.6 446.871 95.6C447.804 95.6 448.737 95.5333 449.671 95.4C450.604 95.2667 451.437 95.0333 452.171 94.7C452.904 94.3667 453.504 93.8667 453.971 93.2C454.437 92.5333 454.671 91.7 454.671 90.7C454.671 89.6333 454.437 88.7333 453.971 88C453.504 87.2 452.404 86.6333 450.671 86.3L437.871 84.2C435.804 83.8667 433.871 83.3 432.071 82.5C430.271 81.7 428.671 80.6333 427.271 79.3C425.937 77.9 424.871 76.2 424.071 74.2C423.337 72.2 422.971 69.8667 422.971 67.2C422.971 64.2 423.604 61.6667 424.871 59.6C426.204 57.4667 427.971 55.7667 430.171 54.5C432.371 53.1667 434.937 52.2 437.871 51.6C440.804 51 443.904 50.7 447.171 50.7C452.837 50.7 457.571 51.6333 461.371 53.5C465.171 55.3667 468.237 58 470.571 61.4L458.771 67.6C457.437 66.0667 455.837 64.8667 453.971 64C452.104 63.1333 449.837 62.7 447.171 62.7C445.371 62.7 443.737 62.9667 442.271 63.5C440.871 64.0333 440.171 65.1667 440.171 66.9C440.171 68.9667 441.271 70.2 443.471 70.6L454.771 72.5C457.371 72.9 459.704 73.5 461.771 74.3C463.904 75.0333 465.704 76.0333 467.171 77.3C468.704 78.5667 469.871 80.1333 470.671 82C471.471 83.8667 471.871 86.1 471.871 88.7ZM495.254 83.3H481.954L479.654 65.1V28.1H497.354V65.2L495.254 83.3ZM497.454 104.9C497.454 105.633 497.12 106 496.454 106H480.654C479.987 106 479.654 105.633 479.654 104.9V89.4C479.654 88.8667 479.72 88.5333 479.854 88.4C479.987 88.2667 480.254 88.2 480.654 88.2H496.454C496.854 88.2 497.12 88.2667 497.254 88.4C497.387 88.5333 497.454 88.8667 497.454 89.4V104.9Z" fill="white"/>
</g>
<defs>
<clipPath id="clip0">
<rect width="675" height="700" fill="white"/>
</clipPath>
</defs>
</svg>
