<svg width="271" height="499" viewBox="0 0 271 499" fill="none" xmlns="http://www.w3.org/2000/svg">
<path fill-rule="evenodd" clip-rule="evenodd" d="M223.635 -112.053C224.416 -106.189 226.235 -101.793 229.574 -99.5316C234.419 -95.387 239.798 -102.864 243.018 -99.8761C244.902 -93.0334 234.553 -94.8957 235.224 -88.9091C238.918 -88.6784 246.09 -93.3603 245.232 -86.759C239.666 -83.5442 232.996 -81.1569 229.6 -76.412C233.163 -73.7116 238.227 -73.0757 245.24 -75.1815C246.209 -67.3315 232.046 -70.2534 229.608 -64.8345C237.664 -52.429 228.618 -41.0383 225.601 -31.3342C227.956 -27.6669 234.154 -29.4218 234.689 -23.2063C229.299 -18.2368 213.142 -20.9342 217.815 -8.7897C218.519 -2.0734 227.235 -6.56943 227.201 1.20159C223.406 5.87763 218.245 -1.61559 213.136 -2.22556C205.779 13.9061 222.95 22.3024 230.375 31.5407C243.838 31.6944 250.374 27.8289 256.345 36.8295C255.716 42.9989 246.2 42.84 246.977 49.9932C247.447 54.7494 250.84 55.3929 253.869 56.5461C255.745 62.2861 249.656 62.3622 249.81 66.8819C253.578 74.7609 264.978 71.8569 270.768 76.862C268.734 81.4785 255.715 78.2556 256.711 85.0123C265.735 97.4874 260.569 119.595 243.957 123.835C239.675 134.719 252.563 132.631 254.628 141.344C245.165 143.818 241.374 138.286 233.049 139.205C224.631 145.564 229.774 160.909 231.823 166.43C210.96 167.139 193.689 170.861 198.111 195.272C189.054 199.487 191.496 187.541 183.713 189.972C164.876 199.119 170.786 225.902 155.03 237.279C164.514 267.145 155.292 283.726 148.564 302.038C150.993 305.573 153.649 308.827 156.078 312.362C139.953 324.551 138.924 347.501 121.429 358.715C116.368 357.359 113.894 352.294 107.031 353.415C116.908 370.066 115.266 378.886 114.614 398.446C105.471 394.63 90.7761 397.942 95.8683 413.196C89.0281 415.083 89.6815 406.415 81.8033 409.769C65.2363 434.932 88.4723 478.313 61.6125 496.164C53.8081 493.58 43.5944 494.183 35.0207 498.717C31.6296 491.129 25.8904 486.782 15.9255 488.439C-2.35332 467.753 3.83325 433.622 37.086 430.843C31.1193 414.747 52.8109 389.287 30.7369 370.165C23.1745 377.437 14.8742 376.845 7.6004 381.765C8.47977 371.829 1.16955 357.916 5.66803 347.356C-11.2873 332.49 17.9257 320.014 19.3673 302.601C20.1897 292.878 12.7442 284.848 14.9505 276.331C20.2697 255.63 46.4137 245.406 71.1953 255.272C68.5235 244.575 78.3752 242.774 77.1088 233.061C65.5047 233.898 57.6154 229.507 52.0836 221.839C54.5955 208.925 46.1723 206.668 54.8487 192.408C49.9761 187.801 45.9738 180.087 42.9435 190.546C42.269 188.392 42.3771 185.157 40.1183 185.235C36.9434 189.015 28.7624 189.251 23.8567 191.846C22.9142 183.472 40.0368 187.946 36.9603 178.051C31.6775 176.673 29.8889 185.189 29.158 177.441C33.5369 173.414 37.4065 169.024 33.8294 159.299C41.9092 153.494 52.7032 149.593 49.1201 135.502C53.4118 131.376 62.2167 130.51 64.7516 125.154C69.765 94.6943 65.7301 65.3011 75.5653 40.3456C70.8113 37.1362 76.1968 34.025 72.1195 31.2626C78.706 24.9437 95.1019 25.6177 87.7429 9.33808C75.5069 14.9402 74.8436 4.24983 65.8307 5.32639C73.615 -10.8426 61.6664 -19.0538 55.4661 -33.429C65.9923 -38.3127 62.5343 -52.4465 56.6917 -60.6536C64.1 -61.9703 64.6676 -68.1941 68.2558 -72.2423C68.2897 -80.0133 59.5744 -75.5173 58.8351 -82.2431C62.4233 -86.2912 70.7985 -86.9694 65.9991 -96.9463C77.2201 -97.2035 77.1766 -112.472 74.1174 -117.618C79.8256 -121.933 82.5867 -118.081 90.9995 -120.457C90.6668 -122.33 90.3695 -124.193 90.0463 -126.102C108.781 -128.634 107.659 -140.586 128.5 -138.379C128.662 -143.232 126.522 -149.687 132.226 -150.588C137.3 -149.988 133.187 -136.478 140.072 -138.391C159.364 -137.624 165.066 -146.305 177.563 -156.278C178.181 -149.243 170.447 -148.127 174.789 -138.424C190.174 -131.569 209.046 -138.581 218.228 -143.825C216.939 -137.036 207.141 -136.283 209.489 -126.925C215.409 -114.902 235.82 -126.663 242.308 -126.671C236.604 -121.52 227.138 -118.895 223.635 -112.053ZM128.397 205.018C130.783 210.553 123.859 209.495 126.245 215.03C132.07 216.933 136.713 220.416 142.838 221.905C144.031 216.039 139.093 201.622 128.397 205.018Z" fill="#7AC7FF" fill-opacity="0.51"/>
</svg>
