<svg width="84" height="145" viewBox="0 0 84 145" fill="none" xmlns="http://www.w3.org/2000/svg">
<path fill-rule="evenodd" clip-rule="evenodd" d="M81.0599 0.265122C57.9922 6.2287 35.9705 11.8274 32.9583 35.3853C20.6531 39.8302 12.3871 47.1792 7.66065 57.0326C11.6712 67.4054 9.92163 76.7661 13.3278 90.8101C6.70326 100.952 -2.15198 109.509 2.11292 127.427C6.65087 133.425 17.9542 129.888 16.5189 144.304C28.9636 137.923 32.1594 139.728 44.9828 141.419C42.4892 128.074 53.467 124.336 51.5181 111.366C61.7738 109.332 64.7408 102.081 74.6192 99.7566C73.3369 87.8377 74.3819 77.5672 83.6471 73.1426C81.1055 53.1821 79.4915 22.54 81.0599 0.265122Z" fill="#7AC7FF" fill-opacity="0.51"/>
</svg>
